<svg width="268" height="251" viewBox="0 0 268 251" fill="none" xmlns="http://www.w3.org/2000/svg">
<path d="M134 250.5C207.941 250.5 267.881 215.893 267.881 173.202C267.881 130.512 207.941 95.9048 134 95.9048C60.0594 95.9048 0.118652 130.512 0.118652 173.202C0.118652 215.893 60.0594 250.5 134 250.5Z" fill="#F0F0F0"/>
<path d="M106.296 231.775C131.793 231.775 152.463 219.842 152.463 205.123C152.463 190.403 131.793 178.47 106.296 178.47C80.7986 178.47 60.1289 190.403 60.1289 205.123C60.1289 219.842 80.7986 231.775 106.296 231.775Z" fill="#E0E0E0"/>
<path d="M237.586 171.776L232.17 168.651C232.17 168.651 230.846 157.058 231.727 148.079C232.966 135.463 241.115 120.278 250.833 123.847C260.55 127.416 246.377 140.259 243.223 150.96C240.07 161.661 237.586 171.776 237.586 171.776Z" fill="#0000BD"/>
<path opacity="0.15" d="M237.586 171.776L232.17 168.651C232.17 168.651 230.846 157.058 231.727 148.079C232.966 135.463 241.115 120.278 250.833 123.847C260.55 127.416 246.377 140.259 243.223 150.96C240.07 161.661 237.586 171.776 237.586 171.776Z" fill="black"/>
<path d="M234.739 170.464C234.826 170.459 234.907 170.421 234.965 170.357C235.024 170.293 235.055 170.209 235.052 170.123C234.103 142.089 248.06 127.985 248.196 127.848C248.258 127.786 248.292 127.703 248.292 127.615C248.292 127.528 248.258 127.444 248.196 127.382C248.166 127.352 248.13 127.328 248.091 127.311C248.051 127.295 248.009 127.286 247.966 127.286C247.923 127.286 247.881 127.295 247.841 127.311C247.802 127.328 247.766 127.352 247.736 127.382C247.588 127.519 233.432 141.828 234.392 170.145C234.394 170.189 234.404 170.232 234.422 170.272C234.441 170.312 234.467 170.348 234.499 170.377C234.531 170.407 234.569 170.43 234.61 170.445C234.652 170.459 234.695 170.466 234.739 170.464Z" fill="white"/>
<path d="M240.99 173.725L237.137 171.503C237.137 171.503 236.478 163.547 240.382 153.886C243.792 145.476 252.202 138.492 256.442 139.958C260.681 141.424 260.573 144.43 258.505 147.584C256.436 150.738 243.871 158.245 240.99 173.725Z" fill="#0000BD"/>
<path d="M238.956 172.884C239.043 172.883 239.126 172.848 239.187 172.786C239.249 172.725 239.284 172.642 239.285 172.555C239.206 154.824 255.851 142.845 256.021 142.725C256.057 142.701 256.087 142.67 256.11 142.634C256.133 142.597 256.149 142.557 256.156 142.514C256.162 142.471 256.161 142.428 256.15 142.386C256.14 142.344 256.121 142.305 256.095 142.271C256.045 142.201 255.969 142.153 255.884 142.138C255.799 142.123 255.712 142.142 255.641 142.191C255.47 142.311 238.552 154.495 238.626 172.555C238.626 172.642 238.661 172.726 238.723 172.788C238.785 172.849 238.868 172.884 238.956 172.884Z" fill="white"/>
<path d="M37.1989 164.815L42.1998 161.439C42.1998 161.439 44.3991 148.369 42.3532 136.838C39.4777 120.665 28.2997 115.289 24.3217 116.994C20.3437 118.699 19.4913 123.512 26.9187 132.741C31.3229 138.168 37.0455 149.755 37.1989 164.815Z" fill="#0000BD"/>
<g opacity="0.15">
<path d="M37.1989 164.815L42.1998 161.439C42.1998 161.439 44.3991 148.369 42.3532 136.838C39.4777 120.665 28.2997 115.289 24.3217 116.994C20.3437 118.699 19.4913 123.512 26.9187 132.741C31.3229 138.168 37.0455 149.755 37.1989 164.815Z" fill="black"/>
</g>
<path d="M38.9148 158.336H38.8636C38.8126 158.333 38.7627 158.319 38.7174 158.295C38.6721 158.272 38.6323 158.238 38.6007 158.198C38.569 158.158 38.5462 158.111 38.5338 158.062C38.5213 158.012 38.5195 157.96 38.5284 157.91C40.3355 142.686 33.9082 126.16 26.9127 119.585C26.8454 119.517 26.8076 119.425 26.8076 119.329C26.8076 119.234 26.8454 119.142 26.9127 119.074C26.946 119.04 26.9858 119.013 27.0297 118.994C27.0736 118.976 27.1208 118.966 27.1684 118.966C27.2161 118.966 27.2632 118.976 27.3071 118.994C27.351 119.013 27.3908 119.04 27.4242 119.074C34.5504 125.768 41.097 142.566 39.2671 158.012C39.2564 158.099 39.2151 158.18 39.1505 158.239C39.086 158.298 39.0024 158.333 38.9148 158.336Z" fill="white"/>
<path d="M24.1056 173.646C23.31 174.123 20.9914 172.401 20.3493 171.986C19.2487 171.268 18.3522 170.277 17.7465 169.111C17.067 167.788 16.8149 166.287 17.0248 164.815C17.1412 164.046 17.3102 163.287 17.5306 162.542C17.7295 161.797 17.9284 161.053 18.0989 160.303C18.3509 159.573 18.4477 158.799 18.383 158.029C18.1614 156.512 16.7918 155.472 15.5416 154.58C14.1664 153.585 12.7002 152.273 12.7002 150.443C12.7703 149.005 13.3206 147.632 14.263 146.544C15.1154 145.408 16.1383 144.419 16.9055 143.231C17.5054 142.408 17.8116 141.408 17.7749 140.39C17.6761 139.763 17.452 139.161 17.1157 138.623C16.4452 137.441 15.5757 136.35 15.104 135.094C14.6324 133.838 14.6664 132.224 15.6723 131.286C16.4736 130.519 17.6954 130.394 18.8035 130.445C19.8477 130.549 20.8565 130.881 21.7586 131.417C24.6966 132.98 26.4242 136.389 29.5327 137.577C30.7317 138.032 32.0388 138.111 33.2833 138.418C34.5279 138.725 35.8122 139.333 36.4089 140.464C37.5852 142.709 35.5337 145.539 36.3748 147.92C37.1249 150.034 39.2162 150.807 40.3982 152.699C40.8779 153.539 41.077 154.511 40.9665 155.472C40.8998 157.095 40.5358 158.692 39.8924 160.183C39.1525 161.73 38.3175 163.229 37.392 164.673C37.392 164.673 24.2249 173.572 24.1056 173.646Z" fill="#0000BD"/>
<path d="M31.789 168.935C31.7412 168.934 31.6941 168.924 31.6503 168.905C31.6064 168.886 31.5667 168.858 31.5335 168.824C31.5002 168.79 31.4741 168.749 31.4565 168.705C31.4389 168.661 31.4302 168.613 31.431 168.565C31.7492 154.176 24.6685 138.446 19.6562 133.9C19.585 133.836 19.542 133.746 19.5367 133.65C19.5314 133.554 19.5641 133.46 19.6278 133.389C19.6611 133.355 19.7009 133.328 19.7448 133.309C19.7887 133.291 19.8359 133.281 19.8835 133.281C19.9312 133.281 19.9783 133.291 20.0222 133.309C20.0661 133.328 20.1059 133.355 20.1393 133.389C25.2538 137.992 32.4766 153.995 32.1527 168.582C32.152 168.629 32.142 168.676 32.1233 168.719C32.1046 168.762 32.0776 168.801 32.0438 168.834C32.0101 168.867 31.9702 168.892 31.9265 168.91C31.8827 168.927 31.836 168.935 31.789 168.935Z" fill="white"/>
<path d="M29.1349 151.403C29.1014 151.411 29.0662 151.411 29.0327 151.403C24.3841 150.062 18.6217 149.925 18.5649 149.92C18.5174 149.919 18.4705 149.909 18.427 149.89C18.3835 149.871 18.3441 149.843 18.3114 149.809C18.2786 149.774 18.2529 149.734 18.236 149.69C18.219 149.645 18.2111 149.598 18.2126 149.55C18.2117 149.502 18.2208 149.455 18.2392 149.41C18.2577 149.366 18.2852 149.326 18.3199 149.293C18.3546 149.26 18.3959 149.234 18.441 149.218C18.4861 149.202 18.5341 149.195 18.582 149.198C18.6388 149.198 24.4921 149.34 29.2316 150.704C29.3231 150.732 29.4002 150.794 29.4459 150.878C29.4916 150.962 29.5024 151.061 29.4759 151.153C29.4538 151.226 29.4086 151.29 29.3471 151.335C29.2856 151.38 29.2112 151.404 29.1349 151.403Z" fill="white"/>
<path d="M163.073 154.921L160.92 153.676C160.561 153.443 160.262 153.129 160.048 152.759C159.833 152.388 159.71 151.973 159.687 151.545V62.0298C159.71 61.6033 159.833 61.1882 160.046 60.8181C160.26 60.4479 160.557 60.133 160.914 59.8987L220.782 25.3359C221.164 25.1427 221.585 25.042 222.013 25.042C222.44 25.042 222.862 25.1427 223.243 25.3359L225.397 26.5804C225.756 26.8134 226.054 27.1279 226.269 27.4982C226.483 27.8685 226.607 28.2843 226.63 28.7115V118.227C226.607 118.654 226.483 119.069 226.27 119.439C226.057 119.809 225.76 120.124 225.403 120.358L165.534 154.927C165.153 155.12 164.731 155.221 164.303 155.22C163.875 155.219 163.454 155.116 163.073 154.921Z" fill="#455A64"/>
<path d="M226.63 28.5126C226.545 27.8761 226.028 27.6431 225.408 28.0011L165.534 62.5697C165.172 62.7968 164.873 63.1115 164.665 63.4846L160.044 60.8194C160.251 60.4434 160.55 60.1265 160.914 59.8987L220.782 25.3359C221.164 25.1427 221.585 25.042 222.013 25.042C222.44 25.042 222.862 25.1427 223.243 25.3359L225.397 26.5804C225.729 26.7946 226.012 27.0781 226.225 27.4116C226.438 27.7451 226.576 28.1207 226.63 28.5126Z" fill="#455A64"/>
<path d="M165.324 155.023C164.96 155.17 164.569 155.238 164.177 155.221C163.784 155.204 163.4 155.104 163.051 154.926L160.891 153.676C160.534 153.442 160.237 153.127 160.024 152.757C159.81 152.386 159.687 151.971 159.664 151.545V62.0293C159.678 61.602 159.801 61.1854 160.022 60.8188L164.642 63.4841C164.417 63.8511 164.292 64.2702 164.278 64.7002V154.216C164.301 154.92 164.744 155.244 165.324 155.023Z" fill="#263238"/>
<path d="M164.301 64.7118V154.216C164.301 155 164.869 155.319 165.534 154.926L225.402 120.358C225.76 120.124 226.057 119.809 226.27 119.439C226.483 119.068 226.606 118.653 226.63 118.227V28.7112C226.63 27.927 226.062 27.6088 225.402 28.0009L165.534 62.5694C165.174 62.8035 164.874 63.1198 164.66 63.4922C164.445 63.8647 164.322 64.2826 164.301 64.7118Z" fill="#37474F"/>
<path d="M150.321 98.8086C149.548 98.3483 145.962 96.3082 145.775 96.2002C145.629 96.113 145.504 95.9941 145.41 95.8523C145.316 95.7105 145.255 95.5494 145.232 95.3808C145.208 95.2123 145.223 95.0406 145.275 94.8785C145.326 94.7164 145.414 94.568 145.531 94.4442L159.686 79.2598L164.301 81.9079L150.151 97.1038C150.04 97.2221 149.955 97.3629 149.903 97.5166C149.851 97.6703 149.832 97.8334 149.848 97.995C149.864 98.1565 149.915 98.3127 149.997 98.4531C150.078 98.5934 150.189 98.7146 150.321 98.8086Z" fill="#455A64"/>
<path d="M164.301 81.9248L150.151 97.1036C149.994 97.2714 149.891 97.4829 149.857 97.7101C149.822 97.9374 149.857 98.1698 149.958 98.3767C150.058 98.5835 150.219 98.755 150.419 98.8686C150.618 98.9823 150.848 99.0326 151.077 99.013L164.301 97.9219V81.9248Z" fill="#37474F"/>
<path d="M195.465 54.5966C202.444 50.5675 208.098 53.8351 208.098 61.8933C208.098 69.9515 202.444 79.743 195.465 83.7721C188.487 87.8012 182.833 84.5336 182.833 76.4811C182.833 68.4285 188.487 58.6257 195.465 54.5966Z" fill="#0000BD"/>
<path d="M195.374 60.9388C197.648 59.6317 199.472 60.6887 199.472 63.3028C199.394 64.7238 198.983 66.1066 198.271 67.3388C197.559 68.571 196.567 69.6181 195.374 70.395C193.101 71.702 191.271 70.645 191.271 68.0309C191.35 66.6094 191.762 65.2264 192.475 63.9941C193.188 62.7618 194.181 61.715 195.374 60.9388Z" fill="white"/>
<path d="M203.456 74.873C203.456 70.5825 200.438 68.8379 196.721 70.986L194.397 72.3271C190.681 74.4752 187.663 79.7148 187.663 83.9939V85.1703C188.365 85.3945 189.097 85.5077 189.834 85.5055C191.828 85.4378 193.769 84.8501 195.466 83.8007C198.696 81.8109 201.429 79.1091 203.456 75.9016V74.873Z" fill="white"/>
<path d="M187.464 123.66L203.467 114.419C204.149 114.027 204.7 114.345 204.7 115.13V120.284C204.677 120.711 204.553 121.127 204.339 121.497C204.125 121.868 203.826 122.182 203.467 122.415L187.464 131.655C186.782 132.047 186.231 131.729 186.231 130.945V125.791C186.254 125.363 186.378 124.948 186.592 124.577C186.807 124.207 187.105 123.893 187.464 123.66Z" fill="#0000BD"/>
<path d="M179.628 112.146L211.286 93.8591C212.099 93.3874 212.764 93.7682 212.764 94.7115V96.6266C212.736 97.1391 212.588 97.6377 212.331 98.0821C212.075 98.5264 211.717 98.9039 211.286 99.1839L179.611 117.471C178.798 117.943 178.139 117.562 178.139 116.619V114.721C178.165 114.204 178.313 113.701 178.572 113.254C178.831 112.806 179.193 112.426 179.628 112.146Z" fill="#FAFAFA"/>
<path d="M183.332 98.9113C183.764 98.6612 184.1 98.6215 184.338 98.7976C184.577 98.9738 184.696 99.3659 184.696 99.9683C184.708 100.518 184.585 101.063 184.338 101.554C184.115 101.998 183.765 102.366 183.332 102.611L182.48 103.105V104.941C182.478 105.004 182.463 105.066 182.435 105.123C182.415 105.174 182.379 105.218 182.332 105.248L181.9 105.498C181.886 105.509 181.868 105.515 181.849 105.515C181.831 105.515 181.813 105.509 181.798 105.498C181.767 105.459 181.753 105.41 181.758 105.361V100.048C181.758 99.985 181.771 99.9229 181.798 99.866C181.82 99.8155 181.855 99.7721 181.9 99.741L183.332 98.9113ZM182.48 102.077L183.304 101.599C183.503 101.487 183.671 101.327 183.793 101.133C183.922 100.905 183.985 100.645 183.975 100.383C183.975 100.076 183.912 99.9001 183.793 99.849C183.708 99.8285 183.621 99.8275 183.536 99.8462C183.451 99.865 183.372 99.9028 183.304 99.9569L182.48 100.434V102.077Z" fill="#FAFAFA"/>
<path d="M187.077 96.7458C187.134 96.7117 187.18 96.7117 187.208 96.7458C187.245 96.7968 187.27 96.8549 187.282 96.9163L188.595 101.36C188.595 101.36 188.595 101.394 188.595 101.411C188.594 101.475 188.578 101.537 188.549 101.593C188.529 101.645 188.493 101.688 188.447 101.718L188.061 101.94C187.992 101.98 187.941 101.985 187.913 101.94C187.885 101.911 187.866 101.876 187.856 101.838L187.623 101.059L185.918 102.036L185.691 103.082C185.675 103.139 185.654 103.194 185.628 103.247C185.6 103.316 185.548 103.373 185.481 103.406L185.094 103.628C185.08 103.64 185.062 103.646 185.043 103.646C185.024 103.646 185.006 103.64 184.992 103.628C184.962 103.591 184.948 103.544 184.952 103.497C184.949 103.476 184.949 103.455 184.952 103.434L186.259 97.4789C186.275 97.3913 186.3 97.3056 186.333 97.2232C186.361 97.1634 186.406 97.1138 186.464 97.0811L187.077 96.7458ZM187.373 100.19L186.805 98.1835L186.236 100.866L187.373 100.19Z" fill="#FAFAFA"/>
<path d="M190.584 94.6376C190.774 94.5176 190.991 94.4455 191.215 94.4274C191.373 94.4131 191.532 94.4489 191.669 94.5297C191.794 94.6106 191.891 94.7275 191.948 94.865C192.01 95.0048 192.045 95.1553 192.05 95.3082C192.054 95.3713 192.04 95.4343 192.01 95.4901C191.99 95.5415 191.954 95.5853 191.908 95.6151L191.533 95.831C191.47 95.8651 191.425 95.8708 191.397 95.831C191.361 95.8079 191.332 95.7767 191.311 95.7401C191.289 95.689 191.256 95.643 191.215 95.6049C191.174 95.5668 191.125 95.5374 191.073 95.5185C190.9 95.4937 190.724 95.5387 190.584 95.6435C190.492 95.7029 190.404 95.7694 190.323 95.8424C190.238 95.92 190.164 96.0078 190.101 96.1038C190.04 96.1963 189.991 96.2955 189.953 96.3993C189.92 96.4982 189.902 96.6018 189.902 96.7062C189.895 96.8018 189.913 96.8976 189.953 96.9846C189.971 97.0152 189.995 97.0409 190.025 97.0598C190.055 97.0786 190.089 97.0899 190.124 97.0926C190.229 97.1109 190.337 97.1109 190.442 97.0926L190.936 96.9846C191.121 96.93 191.313 96.907 191.505 96.9164C191.642 96.916 191.775 96.9599 191.885 97.0415C191.989 97.129 192.065 97.2458 192.101 97.3768C192.157 97.5608 192.182 97.7528 192.175 97.945C192.175 98.1989 192.138 98.4515 192.067 98.6952C191.998 98.9457 191.897 99.1864 191.766 99.4112C191.628 99.6416 191.464 99.8552 191.277 100.048C191.086 100.246 190.868 100.416 190.629 100.553C190.454 100.66 190.262 100.735 190.061 100.775C189.898 100.807 189.729 100.793 189.572 100.735C189.43 100.669 189.313 100.56 189.237 100.423C189.144 100.247 189.094 100.053 189.089 99.8545C189.089 99.7898 189.102 99.7258 189.129 99.6669C189.154 99.6186 189.192 99.5775 189.237 99.5476L189.612 99.3316C189.669 99.2975 189.714 99.2862 189.749 99.3032C189.783 99.3203 189.805 99.3487 189.828 99.3998C189.852 99.4583 189.882 99.5136 189.919 99.5646C189.954 99.6142 190.004 99.6518 190.061 99.6726C190.136 99.6899 190.214 99.6899 190.288 99.6726C190.409 99.6442 190.524 99.5962 190.629 99.5305C190.74 99.4677 190.844 99.3955 190.942 99.3146C191.133 99.1634 191.285 98.9685 191.385 98.7463C191.431 98.6325 191.454 98.5109 191.453 98.3883C191.459 98.3438 191.455 98.2987 191.442 98.2557C191.43 98.2127 191.408 98.1727 191.38 98.1383C191.349 98.1112 191.313 98.0911 191.273 98.0793C191.234 98.0675 191.193 98.0644 191.152 98.0701C191.023 98.0754 190.895 98.0964 190.771 98.1326C190.624 98.1667 190.453 98.2064 190.254 98.2405C190.102 98.2786 189.944 98.2902 189.788 98.2746C189.665 98.2667 189.549 98.2165 189.459 98.1326C189.36 98.0363 189.291 97.9141 189.26 97.7802C189.214 97.5828 189.193 97.3805 189.197 97.1779C189.197 96.9276 189.233 96.6787 189.305 96.4391C189.373 96.1925 189.472 95.9556 189.601 95.7344C189.724 95.5147 189.873 95.3106 190.044 95.1264C190.2 94.9387 190.382 94.7741 190.584 94.6376Z" fill="#FAFAFA"/>
<path d="M194.318 92.4897C194.507 92.366 194.723 92.2918 194.948 92.2738C195.107 92.2603 195.266 92.296 195.403 92.3761C195.524 92.4591 195.619 92.5756 195.676 92.7114C195.738 92.8512 195.773 93.0017 195.778 93.1546C195.785 93.2179 195.771 93.2817 195.738 93.3365C195.718 93.3879 195.683 93.4317 195.636 93.4615L195.261 93.6774C195.204 93.7115 195.159 93.7229 195.125 93.6774C195.088 93.6546 195.061 93.6208 195.045 93.5808C194.993 93.4811 194.906 93.4042 194.801 93.3649C194.716 93.3524 194.63 93.3571 194.547 93.3786C194.464 93.4 194.386 93.4379 194.318 93.4899C194.223 93.5479 194.133 93.6145 194.051 93.6888C193.968 93.7666 193.895 93.8544 193.835 93.9502C193.772 94.0414 193.722 94.1409 193.687 94.2457C193.652 94.3443 193.632 94.4479 193.63 94.5526C193.623 94.6482 193.641 94.744 193.681 94.831C193.699 94.8616 193.723 94.8874 193.753 94.9062C193.783 94.925 193.817 94.9363 193.852 94.939C193.957 94.9574 194.065 94.9574 194.17 94.939L194.664 94.831C194.849 94.7795 195.041 94.7566 195.233 94.7629C195.37 94.7616 195.504 94.8055 195.613 94.8879C195.717 94.9766 195.794 95.0928 195.835 95.2232C195.885 95.4083 195.908 95.5997 195.903 95.7914C195.903 96.0453 195.866 96.2979 195.795 96.5416C195.726 96.7921 195.625 97.0328 195.494 97.2576C195.357 97.4903 195.193 97.7058 195.005 97.8998C194.813 98.0931 194.598 98.2612 194.363 98.3998C194.188 98.506 193.996 98.581 193.795 98.6215C193.633 98.6525 193.466 98.6387 193.312 98.5817C193.167 98.5177 193.047 98.4079 192.971 98.2691C192.877 98.0943 192.829 97.8991 192.829 97.7009C192.822 97.6375 192.836 97.5738 192.869 97.519C192.889 97.4676 192.924 97.4238 192.971 97.394L193.346 97.178C193.403 97.144 193.454 97.1326 193.482 97.1496C193.502 97.1586 193.52 97.172 193.533 97.1887C193.547 97.2055 193.557 97.2251 193.562 97.2462C193.588 97.3036 193.618 97.3587 193.653 97.411C193.69 97.461 193.742 97.4986 193.801 97.519C193.875 97.5363 193.953 97.5363 194.028 97.519C194.149 97.4906 194.264 97.4426 194.369 97.3769C194.476 97.3127 194.579 97.2405 194.676 97.161C194.775 97.0831 194.864 96.9912 194.937 96.8882C195.011 96.7901 195.072 96.6832 195.119 96.57C195.164 96.4561 195.188 96.3346 195.187 96.212C195.192 96.1675 195.189 96.1223 195.176 96.0793C195.163 96.0363 195.142 95.9964 195.113 95.9619C195.083 95.9348 195.046 95.9147 195.007 95.903C194.968 95.8912 194.927 95.888 194.886 95.8937C194.759 95.9015 194.633 95.9224 194.511 95.9562C194.363 95.9903 194.187 96.0301 193.994 96.0642C193.84 96.1023 193.68 96.1138 193.522 96.0983C193.399 96.0918 193.282 96.0414 193.192 95.9562C193.096 95.8595 193.029 95.7373 192.999 95.6039C192.949 95.4092 192.926 95.2083 192.931 95.0072C192.933 94.7553 192.969 94.5049 193.039 94.2628C193.109 94.017 193.209 93.7805 193.335 93.5581C193.458 93.337 193.608 93.1326 193.784 92.95C193.937 92.7697 194.117 92.6144 194.318 92.4897Z" fill="#FAFAFA"/>
<path d="M198.46 93.2002L198 95.9223C197.986 96.0041 197.964 96.0842 197.932 96.1609C197.91 96.2222 197.868 96.2742 197.813 96.3087L197.381 96.5587C197.324 96.5928 197.284 96.5928 197.256 96.5587C197.218 96.512 197.196 96.4542 197.193 96.3939L196.511 91.592C196.511 91.592 196.511 91.5465 196.511 91.5295C196.513 91.4662 196.528 91.4042 196.557 91.3476C196.578 91.2971 196.614 91.2537 196.659 91.2226L197.051 90.9953C197.084 90.982 197.121 90.982 197.153 90.9953C197.187 90.9953 197.21 91.0407 197.222 91.1317L197.671 94.3652L198.063 91.9386C198.073 91.8781 198.09 91.819 198.114 91.7624C198.136 91.6906 198.185 91.6297 198.25 91.592L198.688 91.3362C198.75 91.3021 198.796 91.3078 198.824 91.3362C198.849 91.3724 198.866 91.4129 198.875 91.4556L199.273 93.4275L199.722 89.6769C199.727 89.6031 199.749 89.5313 199.785 89.4666C199.811 89.4241 199.846 89.3874 199.887 89.3586L200.279 89.1313C200.294 89.1202 200.312 89.1143 200.33 89.1143C200.349 89.1143 200.366 89.1202 200.381 89.1313C200.397 89.1499 200.41 89.1716 200.418 89.195C200.425 89.2184 200.428 89.2431 200.427 89.2677C200.429 89.2904 200.429 89.3132 200.427 89.3359L199.745 94.9221C199.733 95.0038 199.712 95.0839 199.682 95.1608C199.656 95.2214 199.613 95.2729 199.557 95.3085L199.12 95.5586C199.068 95.587 199.029 95.587 199 95.5586C198.972 95.5063 198.949 95.4511 198.932 95.3938L198.46 93.2002Z" fill="#FAFAFA"/>
<path d="M201.12 90.7907C201.132 90.4756 201.17 90.162 201.233 89.853C201.298 89.551 201.397 89.2574 201.529 88.9779C201.654 88.7061 201.815 88.4519 202.006 88.222C202.201 87.994 202.433 87.8016 202.694 87.6538C202.894 87.5179 203.128 87.4411 203.37 87.4321C203.551 87.4341 203.724 87.5053 203.853 87.631C203.991 87.7857 204.09 87.9707 204.143 88.1709C204.216 88.4319 204.256 88.7011 204.262 88.9722C204.262 89.0745 204.262 89.1881 204.262 89.3131C204.262 89.4382 204.262 89.5689 204.262 89.7053C204.262 89.8416 204.262 89.9723 204.262 90.0974C204.262 90.2224 204.262 90.3417 204.262 90.4497C204.25 90.7629 204.212 91.0747 204.149 91.3817C204.083 91.6828 203.986 91.9761 203.859 92.2568C203.73 92.5278 203.567 92.7816 203.376 93.0127C203.182 93.2386 202.951 93.4306 202.694 93.5809C202.489 93.7158 202.251 93.7924 202.006 93.8026C201.918 93.8044 201.83 93.7882 201.748 93.755C201.666 93.7217 201.591 93.6722 201.529 93.6093C201.381 93.4502 201.279 93.2538 201.233 93.0411C201.166 92.7791 201.128 92.5103 201.12 92.2398C201.12 92.1375 201.12 92.0238 201.12 91.8988C201.12 91.7738 201.12 91.6431 201.12 91.5067C201.12 91.3703 201.12 91.2453 201.12 91.1146C201.12 90.9839 201.114 90.893 201.12 90.7907ZM203.541 89.4325C203.553 89.2934 203.538 89.1533 203.495 89.0205C203.452 88.8876 203.382 88.7649 203.291 88.6596C203.143 88.5289 202.938 88.5346 202.694 88.6596C202.429 88.8155 202.218 89.0498 202.091 89.3302C201.93 89.6615 201.845 90.0245 201.841 90.3929C201.841 90.6031 201.841 90.8361 201.841 91.0919C201.841 91.3476 201.841 91.5749 201.841 91.7795C201.829 91.9185 201.844 92.0587 201.887 92.1915C201.93 92.3243 202 92.4471 202.091 92.5523C202.239 92.6774 202.444 92.666 202.694 92.5239C202.955 92.3669 203.163 92.1353 203.291 91.859C203.452 91.5298 203.537 91.1686 203.541 90.802C203.541 90.5861 203.541 90.3531 203.541 90.0974C203.541 89.8416 203.546 89.6371 203.541 89.4325Z" fill="#FAFAFA"/>
<path d="M206.74 85.386C207.189 85.1302 207.524 85.0904 207.757 85.278C207.895 85.4301 207.998 85.6109 208.058 85.8074C208.118 86.0039 208.134 86.2113 208.104 86.4145C208.109 86.8005 208.049 87.1846 207.928 87.5511C207.812 87.8925 207.633 88.2087 207.399 88.4831L208.138 90.0913C208.14 90.1178 208.14 90.1444 208.138 90.1709C208.138 90.2221 208.127 90.2727 208.104 90.3186C208.088 90.3599 208.06 90.3955 208.024 90.4209L207.57 90.6823C207.496 90.7221 207.445 90.7278 207.411 90.6823C207.381 90.6525 207.356 90.618 207.337 90.58L206.638 89.0627L205.927 89.4719V91.3927C205.928 91.4555 205.914 91.5176 205.888 91.5745C205.864 91.6239 205.829 91.6668 205.785 91.6996L205.353 91.9496C205.339 91.9616 205.321 91.9682 205.302 91.9682C205.284 91.9682 205.265 91.9616 205.251 91.9496C205.235 91.9322 205.222 91.9116 205.215 91.8891C205.207 91.8666 205.204 91.8426 205.206 91.8189V86.5055C205.207 86.4423 205.223 86.3802 205.251 86.3236C205.271 86.2722 205.307 86.2284 205.353 86.1986L206.74 85.386ZM205.939 88.4433L206.74 88.0114C206.936 87.9021 207.103 87.7483 207.229 87.5625C207.36 87.3435 207.424 87.0902 207.411 86.8351C207.411 86.5282 207.348 86.3577 207.229 86.3236C207.056 86.3001 206.88 86.3449 206.74 86.4486L205.967 86.8919L205.939 88.4433Z" fill="#FAFAFA"/>
<path d="M210.548 83.1981C210.754 83.0635 210.99 82.9816 211.235 82.9594C211.413 82.9529 211.586 83.0161 211.718 83.1356C211.869 83.2939 211.973 83.4905 212.019 83.7039C212.096 83.9857 212.138 84.2758 212.144 84.5677C212.144 84.9655 212.144 85.3746 212.144 85.7895C212.133 86.1278 212.091 86.4645 212.019 86.7953C211.954 87.1028 211.855 87.4021 211.724 87.6875C211.597 87.9497 211.437 88.1942 211.247 88.4149C211.057 88.6409 210.83 88.833 210.576 88.9832L209.229 89.7163C209.215 89.7283 209.197 89.7349 209.178 89.7349C209.159 89.7349 209.141 89.7283 209.127 89.7163C209.11 89.6991 209.098 89.6785 209.09 89.656C209.082 89.6334 209.079 89.6094 209.081 89.5856V84.2722C209.083 84.209 209.099 84.1469 209.127 84.0903C209.147 84.0389 209.183 83.9951 209.229 83.9653L210.548 83.1981ZM211.423 84.9655C211.42 84.8116 211.397 84.6587 211.354 84.5109C211.328 84.399 211.271 84.2967 211.19 84.2154C211.154 84.1797 211.111 84.1517 211.064 84.1331C211.018 84.1146 210.967 84.1058 210.917 84.1074C210.775 84.1169 210.637 84.1639 210.519 84.2438L209.803 84.6529V88.3581L210.548 87.9319C210.691 87.848 210.82 87.7405 210.928 87.6137C211.034 87.489 211.124 87.3516 211.195 87.2045C211.266 87.0479 211.32 86.884 211.354 86.7158C211.394 86.5403 211.417 86.3614 211.423 86.1816C211.44 85.7668 211.44 85.3633 211.423 84.9655Z" fill="#FAFAFA"/>
<path d="M132.511 0.717813C133.492 0.936078 134.437 1.29193 135.319 1.77482C136.163 2.22846 136.919 2.82886 137.552 3.54785C138.158 4.23948 138.608 5.05356 138.87 5.93463C139.139 6.87777 139.158 7.87424 138.927 8.82718C138.775 9.58271 138.476 10.301 138.046 10.9412C137.655 11.4887 137.188 11.9784 136.66 12.396C136.141 12.7986 135.588 13.1543 135.006 13.4587L133.369 14.3281C132.876 14.5853 132.408 14.8878 131.971 15.2317C131.576 15.5349 131.273 15.9423 131.096 16.408C131.01 16.6208 130.866 16.8057 130.681 16.9422C130.594 17.0101 130.492 17.0572 130.384 17.0799C130.276 17.1025 130.164 17.1001 130.056 17.0729L127.647 16.5388C127.531 16.5144 127.421 16.4672 127.323 16.3999C127.226 16.3326 127.143 16.2465 127.079 16.1466C127.011 16.0538 126.965 15.9463 126.947 15.8328C126.928 15.7192 126.936 15.6029 126.971 15.4931C127.165 14.7469 127.507 14.0473 127.976 13.4359C128.405 12.8952 128.902 12.4119 129.454 11.9982C129.992 11.6043 130.562 11.2564 131.159 10.9582C131.727 10.6684 132.295 10.39 132.79 10.1115C133.25 9.8643 133.682 9.56903 134.08 9.23066C134.429 8.93855 134.671 8.53873 134.767 8.0941C134.858 7.708 134.853 7.30576 134.754 6.92177C134.655 6.53778 134.465 6.18348 134.199 5.88917C133.535 5.16365 132.646 4.6815 131.676 4.51961C129.88 4.12182 128.365 4.72609 127.13 6.33243C127.01 6.50777 126.86 6.6599 126.686 6.78137C126.49 6.87861 126.264 6.89493 126.056 6.82683L123.493 6.25855C123.31 6.22323 123.149 6.11699 123.044 5.96305C122.988 5.8808 122.95 5.78748 122.934 5.68942C122.917 5.59137 122.922 5.49087 122.947 5.39476C123.165 4.60511 123.571 3.87983 124.129 3.28076C124.759 2.58601 125.508 2.00876 126.34 1.57592C127.25 1.09992 128.23 0.773713 129.244 0.60984C130.33 0.433213 131.44 0.469887 132.511 0.717813ZM129.789 19.0051C130.015 19.058 130.211 19.1971 130.335 19.3925C130.459 19.5879 130.502 19.8241 130.454 20.0507L129.84 22.8353C129.82 22.9519 129.775 23.0628 129.708 23.1607C129.641 23.2586 129.555 23.3414 129.454 23.4036C129.359 23.4692 129.251 23.5142 129.138 23.5357C129.024 23.5572 128.907 23.5548 128.795 23.5286L126.044 22.8978C125.927 22.8781 125.816 22.8334 125.718 22.7667C125.62 22.7 125.537 22.6129 125.476 22.5114C125.412 22.4154 125.369 22.3074 125.348 22.1941C125.328 22.0807 125.331 21.9644 125.357 21.8522L125.976 19.0676C126.029 18.8419 126.168 18.6456 126.363 18.5205C126.558 18.3953 126.795 18.351 127.022 18.397L129.789 19.0051Z" fill="#0000BD"/>
<path d="M135.546 27.3759C136.23 27.2661 136.926 27.2528 137.614 27.3361C138.272 27.4143 138.91 27.6066 139.501 27.9044C140.064 28.1964 140.56 28.6029 140.956 29.0978C141.312 29.5822 141.563 30.1358 141.692 30.7231C141.822 31.3104 141.826 31.9183 141.706 32.5075C141.598 32.9605 141.424 33.3951 141.189 33.7975C140.963 34.1889 140.7 34.558 140.405 34.9C140.115 35.2409 139.836 35.5648 139.581 35.8774C139.33 36.1686 139.108 36.4825 138.916 36.8151C138.736 37.1066 138.645 37.4443 138.654 37.7868C138.649 37.9469 138.604 38.1032 138.524 38.2415C138.483 38.3052 138.428 38.3594 138.365 38.4006C138.301 38.4417 138.229 38.4688 138.154 38.4801L136.449 38.7529C136.37 38.7674 136.288 38.7658 136.209 38.7482C136.13 38.7306 136.055 38.6975 135.989 38.6506C135.922 38.6084 135.866 38.5508 135.825 38.4827C135.785 38.4145 135.761 38.3377 135.756 38.2585C135.685 37.7297 135.723 37.1918 135.87 36.6787C136.003 36.2244 136.194 35.789 136.438 35.383C136.677 34.9934 136.951 34.6263 137.256 34.2862C137.558 33.9452 137.825 33.627 138.086 33.3201C138.319 33.0461 138.522 32.7468 138.689 32.4279C138.836 32.1535 138.89 31.8381 138.842 31.5301C138.799 31.2589 138.692 31.0022 138.528 30.7815C138.365 30.5609 138.151 30.3829 137.904 30.2628C137.293 29.9677 136.602 29.8837 135.938 30.0241C135.337 30.112 134.778 30.3836 134.337 30.8018C133.897 31.2199 133.596 31.7641 133.477 32.3597C133.444 32.503 133.386 32.6395 133.307 32.7632C133.205 32.8711 133.068 32.9379 132.92 32.9508L131.125 33.2406C130.998 33.2647 130.868 33.2382 130.761 33.1667C130.706 33.1291 130.66 33.0802 130.626 33.0234C130.592 32.9666 130.57 32.903 130.562 32.8371C130.509 32.2732 130.597 31.7048 130.818 31.1834C131.043 30.5766 131.374 30.0147 131.795 29.524C132.257 28.9867 132.802 28.5263 133.409 28.1601C134.064 27.763 134.79 27.4967 135.546 27.3759ZM138.478 39.7929C138.556 39.7804 138.636 39.7836 138.713 39.8021C138.79 39.8206 138.863 39.8542 138.927 39.9008C138.994 39.9449 139.051 40.0026 139.094 40.0701C139.137 40.1377 139.166 40.2136 139.177 40.2929L139.495 42.2421C139.52 42.4003 139.481 42.5617 139.388 42.6915C139.294 42.8213 139.153 42.9089 138.995 42.9355L137.092 43.248C136.934 43.2724 136.772 43.2337 136.643 43.14C136.577 43.0954 136.521 43.0375 136.479 42.9699C136.437 42.9024 136.409 42.8267 136.398 42.7479L136.08 40.7987C136.066 40.7205 136.068 40.6401 136.086 40.5628C136.105 40.4854 136.14 40.4129 136.188 40.3498C136.233 40.2839 136.291 40.228 136.358 40.1859C136.426 40.1439 136.501 40.1164 136.58 40.1054L138.478 39.7929Z" fill="#0000BD"/>
<g opacity="0.2">
<path d="M135.546 27.3759C136.23 27.2661 136.926 27.2528 137.614 27.3361C138.272 27.4143 138.91 27.6066 139.501 27.9044C140.064 28.1964 140.56 28.6029 140.956 29.0978C141.312 29.5822 141.563 30.1358 141.692 30.7231C141.822 31.3104 141.826 31.9183 141.706 32.5075C141.598 32.9605 141.424 33.3951 141.189 33.7975C140.963 34.1889 140.7 34.558 140.405 34.9C140.115 35.2409 139.836 35.5648 139.581 35.8774C139.33 36.1686 139.108 36.4825 138.916 36.8151C138.736 37.1066 138.645 37.4443 138.654 37.7868C138.649 37.9469 138.604 38.1032 138.524 38.2415C138.483 38.3052 138.428 38.3594 138.365 38.4006C138.301 38.4417 138.229 38.4688 138.154 38.4801L136.449 38.7529C136.37 38.7674 136.288 38.7658 136.209 38.7482C136.13 38.7306 136.055 38.6975 135.989 38.6506C135.922 38.6084 135.866 38.5508 135.825 38.4827C135.785 38.4145 135.761 38.3377 135.756 38.2585C135.685 37.7297 135.723 37.1918 135.87 36.6787C136.003 36.2244 136.194 35.789 136.438 35.383C136.677 34.9934 136.951 34.6263 137.256 34.2862C137.558 33.9452 137.825 33.627 138.086 33.3201C138.319 33.0461 138.522 32.7468 138.689 32.4279C138.836 32.1535 138.89 31.8381 138.842 31.5301C138.799 31.2589 138.692 31.0022 138.528 30.7815C138.365 30.5609 138.151 30.3829 137.904 30.2628C137.293 29.9677 136.602 29.8837 135.938 30.0241C135.337 30.112 134.778 30.3836 134.337 30.8018C133.897 31.2199 133.596 31.7641 133.477 32.3597C133.444 32.503 133.386 32.6395 133.307 32.7632C133.205 32.8711 133.068 32.9379 132.92 32.9508L131.125 33.2406C130.998 33.2647 130.868 33.2382 130.761 33.1667C130.706 33.1291 130.66 33.0802 130.626 33.0234C130.592 32.9666 130.57 32.903 130.562 32.8371C130.509 32.2732 130.597 31.7048 130.818 31.1834C131.043 30.5766 131.374 30.0147 131.795 29.524C132.257 28.9867 132.802 28.5263 133.409 28.1601C134.064 27.763 134.79 27.4967 135.546 27.3759ZM138.478 39.7929C138.556 39.7804 138.636 39.7836 138.713 39.8021C138.79 39.8206 138.863 39.8542 138.927 39.9008C138.994 39.9449 139.051 40.0026 139.094 40.0701C139.137 40.1377 139.166 40.2136 139.177 40.2929L139.495 42.2421C139.52 42.4003 139.481 42.5617 139.388 42.6915C139.294 42.8213 139.153 42.9089 138.995 42.9355L137.092 43.248C136.934 43.2724 136.772 43.2337 136.643 43.14C136.577 43.0954 136.521 43.0375 136.479 42.9699C136.437 42.9024 136.409 42.8267 136.398 42.7479L136.08 40.7987C136.066 40.7205 136.068 40.6401 136.086 40.5628C136.105 40.4854 136.14 40.4129 136.188 40.3498C136.233 40.2839 136.291 40.228 136.358 40.1859C136.426 40.1439 136.501 40.1164 136.58 40.1054L138.478 39.7929Z" fill="black"/>
</g>
<path d="M151.617 30.4393C151.694 30.4931 151.76 30.5622 151.81 30.6424C151.86 30.7225 151.893 30.8119 151.907 30.9052C151.925 30.9977 151.924 31.0929 151.903 31.1848C151.882 31.2768 151.843 31.3635 151.787 31.4394L150.435 33.3432C150.381 33.4207 150.312 33.4863 150.232 33.5362C150.152 33.586 150.062 33.6189 149.969 33.633C149.876 33.6511 149.781 33.6498 149.689 33.6293C149.597 33.6087 149.511 33.5694 149.435 33.5137L147.571 32.1896C147.493 32.1364 147.428 32.0674 147.379 31.9871C147.33 31.9067 147.298 31.8169 147.287 31.7236C147.269 31.6311 147.27 31.5359 147.29 31.444C147.311 31.352 147.35 31.2654 147.406 31.1894L148.775 29.2856C148.886 29.1313 149.053 29.0269 149.241 28.995C149.428 28.9631 149.62 29.0063 149.776 29.1152L151.617 30.4393ZM159.482 17.545C160.162 18.0213 160.767 18.5958 161.278 19.2498C161.776 19.8582 162.161 20.5511 162.414 21.2956C162.65 22.0091 162.73 22.765 162.647 23.5119C162.551 24.3084 162.249 25.0663 161.772 25.7112C161.417 26.2326 160.961 26.6771 160.431 27.0182C159.964 27.3109 159.457 27.533 158.925 27.6774C158.407 27.8128 157.879 27.904 157.345 27.9502L155.834 28.0866C155.38 28.1228 154.931 28.2008 154.492 28.3196C154.088 28.4115 153.717 28.6164 153.424 28.9106C153.292 29.045 153.124 29.1395 152.941 29.1834C152.854 29.2084 152.762 29.2121 152.673 29.1944C152.584 29.1766 152.5 29.1377 152.43 29.0811L150.782 27.9104C150.624 27.7979 150.516 27.6289 150.48 27.4387C150.459 27.3466 150.46 27.2507 150.483 27.1589C150.505 27.0671 150.549 26.9819 150.611 26.9102C150.996 26.4107 151.477 25.9933 152.026 25.6827C152.52 25.4129 153.048 25.2085 153.595 25.0747C154.122 24.9466 154.661 24.8648 155.203 24.8303C155.737 24.7962 156.237 24.7564 156.703 24.711C157.129 24.6733 157.551 24.5895 157.959 24.4609C158.316 24.342 158.624 24.1082 158.834 23.7961C159.024 23.5325 159.148 23.2269 159.194 22.9053C159.241 22.5838 159.209 22.2557 159.101 21.9491C158.832 21.1917 158.318 20.5457 157.641 20.1136C156.413 19.2384 155.074 19.21 153.623 20.0284C153.477 20.1213 153.315 20.1868 153.146 20.2216C153.057 20.2277 152.969 20.2163 152.885 20.188C152.801 20.1597 152.723 20.1151 152.657 20.0568L150.907 18.8122C150.843 18.7702 150.789 18.7158 150.747 18.6523C150.705 18.5889 150.676 18.5176 150.662 18.4428C150.649 18.3655 150.651 18.2862 150.67 18.2099C150.688 18.1336 150.723 18.062 150.77 17.9996C151.183 17.4705 151.72 17.0509 152.333 16.7778C153.03 16.4622 153.776 16.2699 154.538 16.2095C155.377 16.1394 156.221 16.2066 157.038 16.4084C157.92 16.6209 158.751 17.0073 159.482 17.545Z" fill="#0000BD"/>
<g opacity="0.6">
<path d="M151.617 30.4388C151.694 30.4926 151.76 30.5617 151.81 30.6419C151.86 30.722 151.893 30.8115 151.907 30.9048C151.925 30.9972 151.924 31.0924 151.903 31.1843C151.882 31.2763 151.843 31.363 151.787 31.4389L150.435 33.3427C150.381 33.4202 150.312 33.4858 150.232 33.5357C150.152 33.5855 150.062 33.6185 149.969 33.6325C149.876 33.6506 149.781 33.6493 149.689 33.6288C149.597 33.6082 149.511 33.5689 149.435 33.5132L147.571 32.1891C147.493 32.1359 147.428 32.0669 147.379 31.9866C147.33 31.9062 147.298 31.8164 147.287 31.7231C147.269 31.6306 147.27 31.5354 147.29 31.4435C147.311 31.3516 147.35 31.2649 147.406 31.1889L148.775 29.2852C148.886 29.1309 149.053 29.0264 149.241 28.9945C149.428 28.9626 149.62 29.0058 149.776 29.1147L151.617 30.4388ZM159.482 17.5445C160.162 18.0208 160.767 18.5953 161.278 19.2493C161.776 19.8577 162.161 20.5506 162.414 21.2951C162.65 22.0086 162.73 22.7645 162.647 23.5114C162.551 24.3079 162.249 25.0658 161.772 25.7107C161.417 26.2321 160.961 26.6767 160.431 27.0177C159.964 27.3104 159.457 27.5325 158.925 27.6769C158.407 27.8123 157.879 27.9035 157.345 27.9497L155.834 28.0861C155.38 28.1223 154.931 28.2003 154.492 28.3191C154.088 28.411 153.717 28.616 153.424 28.9101C153.292 29.0445 153.124 29.139 152.941 29.1829C152.854 29.2079 152.762 29.2117 152.673 29.1939C152.584 29.1761 152.5 29.1372 152.43 29.0806L150.782 27.9099C150.624 27.7974 150.516 27.6284 150.48 27.4382C150.459 27.3461 150.46 27.2502 150.483 27.1584C150.505 27.0666 150.549 26.9814 150.611 26.9097C150.996 26.4102 151.477 25.9928 152.026 25.6823C152.52 25.4124 153.048 25.208 153.595 25.0742C154.122 24.9461 154.661 24.8643 155.203 24.8298C155.737 24.7957 156.237 24.756 156.703 24.7105C157.129 24.6728 157.551 24.589 157.959 24.4605C158.316 24.3415 158.624 24.1077 158.834 23.7956C159.024 23.532 159.148 23.2264 159.194 22.9048C159.241 22.5833 159.209 22.2553 159.101 21.9487C158.832 21.1912 158.318 20.5452 157.641 20.1131C156.413 19.238 155.074 19.2095 153.623 20.0279C153.477 20.1208 153.315 20.1863 153.146 20.2211C153.057 20.2272 152.969 20.2158 152.885 20.1875C152.801 20.1593 152.723 20.1146 152.657 20.0563L150.907 18.8117C150.843 18.7697 150.789 18.7153 150.747 18.6518C150.705 18.5884 150.676 18.5172 150.662 18.4424C150.649 18.365 150.651 18.2857 150.67 18.2094C150.688 18.1331 150.723 18.0615 150.77 17.9991C151.183 17.47 151.72 17.0504 152.333 16.7773C153.03 16.4617 153.776 16.2695 154.538 16.209C155.377 16.1389 156.221 16.2061 157.038 16.4079C157.92 16.6204 158.751 17.0068 159.482 17.5445Z" fill="white"/>
</g>
<path d="M109.296 80.7431H89.1055V31.8255C89.1055 27.5768 90.7933 23.5021 93.7976 20.4978C96.8019 17.4935 100.877 15.8057 105.125 15.8057H106.989C111.238 15.8057 115.313 17.4935 118.317 20.4978C121.321 23.5021 123.009 27.5768 123.009 31.8255V67.0589C123.002 70.6908 121.554 74.1714 118.983 76.7368C116.412 79.3023 112.928 80.7431 109.296 80.7431Z" fill="#263238"/>
<path d="M87.1391 198.508C86.782 200.535 86.5919 202.588 86.5708 204.646C86.4969 208.374 85.815 209.698 85.7241 212.755C85.6161 216.25 86.2242 217.557 87.6392 219.523C89.0542 221.49 92.7537 223.268 94.3563 219.95C95.9588 216.631 95.7258 214.454 95.2201 211.028C94.7029 207.481 94.6518 205.521 94.3335 202.822C94.0721 200.44 93.7653 198.628 93.7653 198.628L87.1391 198.508Z" fill="#263238"/>
<path d="M97.7207 173.748L85.4458 173.526C85.6277 181.721 86.929 190.819 87.1506 198.531C87.1961 199.98 87.1166 209.777 87.6621 212.738C88.4861 217.216 93.7938 216.608 94.078 213.931C94.3621 211.255 93.737 199.815 93.7541 198.633C93.7029 193.7 96.0272 185.375 97.2263 176.521C97.2774 176.095 97.6638 174.174 97.7207 173.748Z" fill="#FFA8A7"/>
<path d="M113.491 192.132C113.491 192.132 113.008 191.871 112.922 192.388C112.803 193.001 112.621 194.269 112.354 195.28C112.002 196.684 111.706 198.997 111.916 200.145C112.127 201.293 114.798 202.759 116.531 203.293C118.667 203.952 120.615 205.111 122.214 206.674C123.919 208.288 127.629 209.811 130.17 209.794C133.153 209.794 135.233 208.8 136.216 207.203C137.199 205.606 135.318 205.413 131.909 203.225L129.266 201.52C123.862 197.991 121.878 196.104 120.361 192.575L113.491 192.132Z" fill="#263238"/>
<path d="M120.406 189.944C120.315 187.409 122.066 165.866 122.066 165.866L110.41 171.179C112.905 186.079 113.439 189.597 113.479 192.035C113.428 192.239 113.407 192.45 113.416 192.66C113.416 195.553 116.695 197.115 119.241 199.048C121.406 200.743 123.712 202.249 126.134 203.548C127.987 204.475 131.749 204.56 132.215 203.372C129.112 201.003 124.6 197.456 122.134 194.751C120.929 193.478 120.497 192.484 120.406 189.944Z" fill="#FFA8A7"/>
<path d="M90.4751 93.7852C85.9971 103.611 85.9971 111.214 86.7415 123.756C87.4007 135.264 88.4975 145.408 88.4975 145.408C88.327 147.448 85.4913 151.432 85.1219 160.456C84.7809 168.889 85.6902 179.613 85.6902 179.613C85.6902 179.613 92.0606 183.142 96.7717 179.579C96.7717 179.579 101.318 157.876 102.648 147.317C103.784 138.105 105.83 126.336 105.83 126.336L110.132 147.255C109.203 150.223 108.53 153.265 108.12 156.347C107.518 162.559 110.996 174.754 110.996 174.754C110.996 174.754 117.576 176.714 121.594 173.151C121.594 173.151 123.094 153.324 123.657 145.845C124.407 135.827 122.827 108.708 121.594 94.3477L90.4751 93.7852Z" fill="#455A64"/>
<path d="M105.841 126.319L107.609 110.555C107.609 110.555 115.531 109.498 119.122 106.123C118.094 107.731 116.725 109.093 115.111 110.113C113.497 111.132 111.679 111.784 109.785 112.021L107.228 126.689L110.132 147.255L105.841 126.319Z" fill="#263238"/>
<path d="M137.921 89.9097C138.248 87.033 138.392 84.1384 138.353 81.2434C138.176 78.743 137.728 78.3338 134.233 73.9069C129.516 67.9229 125.487 62.5413 121.225 57.1938C118.179 53.3749 114.974 52.7896 111.859 52.9601C109.677 53.0794 113.939 63.5756 116.082 69.7869L128.317 82.9596C128.696 83.4795 128.87 84.1209 128.805 84.7611L128.067 95.9676L131.732 100.878C131.732 100.878 137.284 96.0926 137.921 89.9097Z" fill="#FFA8A7"/>
<path d="M100.062 53.3008C97.6921 53.4656 93.3845 53.869 93.3845 53.869C90.9011 55.2556 90.2703 56.3979 89.81 59.6939C89.6111 61.1032 90.759 64.8482 91.7422 70.173L93.6061 80.044L93.4015 84.9426C92.4355 87.9318 90.2476 91.6427 88.3154 97.1152C97.8057 102.412 105.762 102.61 112.979 101.661C118.48 100.951 121.395 99.6213 122.367 98.3029C122.162 92.8986 121.799 89.5571 121.685 83.9084C121.645 81.5386 121.787 79.1405 121.884 76.4127C125.572 73.3781 125.617 68.3318 123.589 65.0471C118.912 57.4719 114.36 52.7041 111.348 52.9484L100.062 53.3008Z" fill="#0000BD"/>
<path opacity="0.6" d="M100.062 53.3008C97.6921 53.4656 93.3845 53.869 93.3845 53.869C90.9011 55.2556 90.2703 56.3979 89.81 59.6939C89.6111 61.1032 90.759 64.8482 91.7422 70.173L93.6061 80.044L93.4015 84.9426C92.4355 87.9318 90.2476 91.6427 88.3154 97.1152C97.8057 102.412 105.762 102.61 112.979 101.661C118.48 100.951 121.395 99.6213 122.367 98.3029C122.162 92.8986 121.799 89.5571 121.685 83.9084C121.645 81.5386 121.787 79.1405 121.884 76.4127C125.572 73.3781 125.617 68.3318 123.589 65.0471C118.912 57.4719 114.36 52.7041 111.348 52.9484L100.062 53.3008Z" fill="white"/>
<path opacity="0.1" d="M114.536 76.4867C114.536 76.4867 110.206 79.8509 105.256 78.0949C103.866 77.657 102.613 76.8677 101.617 75.8034C100.622 74.7392 99.9177 73.436 99.5733 72.02C99.5733 72.02 99.0505 77.6744 105.285 79.6009C111.325 81.4592 114.536 76.4867 114.536 76.4867Z" fill="black"/>
<path d="M120.412 37.7811C120.225 45.9871 117.571 48.0101 116.23 48.5784C114.889 49.1467 112.32 48.8057 109.82 48.3909V53.3463C109.82 53.3463 112.706 56.3696 112.49 58.6256C112.274 60.8817 107.944 61.1374 104.716 58.9268C102.935 57.7034 101.324 56.2492 99.9257 54.6022C99.6572 54.2845 99.5102 53.8817 99.5109 53.4656V41.8727C99.5109 41.8727 98.1413 43.3218 95.7205 41.6625C95.1981 41.3291 94.7508 40.8907 94.4071 40.3751C94.0633 39.8596 93.8306 39.2781 93.7237 38.6677C93.6168 38.0574 93.6381 37.4314 93.7862 36.8297C93.9343 36.228 94.2059 35.6637 94.5839 35.1727C95.6409 33.9281 98.3232 33.8429 99.6075 35.741C100.335 37.156 100.432 38.5824 101.244 38.0141C103.404 36.457 102.244 32.8996 104.853 31.1947C105.709 30.748 106.598 30.368 107.512 30.0582C112.167 28.4499 116.201 27.0974 117.173 23.915C119.003 24.9607 120.64 28.1033 120.412 37.7811Z" fill="#FFA8A7"/>
<path d="M111.235 45.1116C111.831 45.1116 112.314 44.6282 112.314 44.0319C112.314 43.4356 111.831 42.9521 111.235 42.9521C110.638 42.9521 110.155 43.4356 110.155 44.0319C110.155 44.6282 110.638 45.1116 111.235 45.1116Z" fill="#B16668"/>
<path d="M110.518 36.5364C110.518 36.7587 110.452 36.9761 110.33 37.1616C110.207 37.347 110.033 37.4925 109.829 37.5799C109.624 37.6674 109.399 37.693 109.18 37.6535C108.961 37.6141 108.759 37.5113 108.598 37.358C108.437 37.2047 108.324 37.0075 108.274 36.7909C108.224 36.5743 108.239 36.3478 108.316 36.1394C108.394 35.931 108.53 35.7499 108.71 35.6184C108.889 35.487 109.103 35.411 109.325 35.3999C109.479 35.3922 109.633 35.4158 109.777 35.4695C109.922 35.5232 110.054 35.6057 110.166 35.712C110.277 35.8183 110.366 35.9462 110.427 36.0879C110.487 36.2297 110.518 36.3823 110.518 36.5364Z" fill="#263238"/>
<path d="M119.128 36.6504C119.14 36.7894 119.124 36.9294 119.08 37.0621C119.037 37.1949 118.968 37.3177 118.877 37.4235C118.787 37.5293 118.675 37.6159 118.551 37.6783C118.426 37.7407 118.29 37.7776 118.151 37.787C118.01 37.7999 117.869 37.7829 117.735 37.7369C117.602 37.691 117.48 37.6172 117.377 37.5204C117.274 37.4237 117.194 37.3062 117.14 37.1758C117.086 37.0454 117.061 36.905 117.065 36.764C117.051 36.624 117.065 36.4824 117.107 36.348C117.149 36.2135 117.218 36.0891 117.309 35.9823C117.401 35.8755 117.514 35.7885 117.64 35.7268C117.767 35.665 117.905 35.6298 118.045 35.6232C118.186 35.6166 118.327 35.6388 118.458 35.6885C118.59 35.7381 118.711 35.8142 118.812 35.9119C118.913 36.0097 118.994 36.1271 119.048 36.2571C119.102 36.387 119.13 36.5266 119.128 36.6674V36.6504Z" fill="#263238"/>
<path d="M109.058 39.4576C108.078 39.4576 107.138 39.0686 106.444 38.376C105.75 37.6835 105.36 36.7439 105.358 35.7638C105.358 33.252 107.95 33.252 109.058 33.252C110.166 33.252 112.752 33.252 112.752 35.7638C112.75 36.743 112.361 37.6816 111.668 38.374C110.976 39.0664 110.037 39.4561 109.058 39.4576ZM109.058 33.8316C106.785 33.8316 105.944 34.3999 105.944 35.7638C105.944 36.5927 106.273 37.3877 106.859 37.9739C107.445 38.56 108.24 38.8893 109.069 38.8893C109.898 38.8893 110.693 38.56 111.279 37.9739C111.866 37.3877 112.195 36.5927 112.195 35.7638C112.172 34.3715 111.297 33.8316 109.058 33.8316Z" fill="#455A64"/>
<path d="M118.44 39.4576C117.46 39.4576 116.52 39.0686 115.826 38.376C115.133 37.6835 114.742 36.7439 114.741 35.7638C114.741 33.252 117.332 33.252 118.44 33.252C119.548 33.252 122.134 33.252 122.134 35.7638C122.133 36.743 121.743 37.6816 121.051 38.374C120.358 39.0664 119.419 39.4561 118.44 39.4576ZM118.44 33.8316C116.201 33.8316 115.326 34.3999 115.326 35.7638C115.326 36.5927 115.655 37.3877 116.242 37.9739C116.828 38.56 117.623 38.8893 118.452 38.8893C119.281 38.8893 120.076 38.56 120.662 37.9739C121.248 37.3877 121.577 36.5927 121.577 35.7638C121.554 34.3715 120.679 33.8316 118.44 33.8316Z" fill="#455A64"/>
<path d="M113.326 34.5703L113.508 41.4749L117.139 40.3497L113.326 34.5703Z" fill="#F28F8F"/>
<path d="M109.814 48.4083C107.177 48.0616 101.75 46.5045 100.903 44.3564C101.244 45.4421 101.908 46.3977 102.807 47.0956C104.427 48.4878 109.814 50.0506 109.814 50.0506V48.4083Z" fill="#F28F8F"/>
<path d="M109.944 31.2177L107.535 32.6895C107.345 32.3587 107.29 31.9675 107.381 31.5971C107.472 31.2267 107.702 30.9056 108.024 30.7005C108.182 30.6041 108.359 30.5408 108.543 30.5147C108.728 30.4885 108.915 30.4999 109.095 30.5483C109.274 30.5966 109.442 30.6808 109.588 30.7959C109.734 30.911 109.855 31.0544 109.944 31.2177Z" fill="#263238"/>
<path d="M119.747 32.854L117.065 31.9164C117.117 31.7386 117.205 31.5733 117.323 31.4307C117.441 31.2881 117.587 31.1712 117.752 31.0871C117.917 31.003 118.097 30.9535 118.282 30.9417C118.467 30.9299 118.652 30.9561 118.827 31.0185C119.186 31.1478 119.483 31.4105 119.654 31.7522C119.825 32.0939 119.859 32.4884 119.747 32.854Z" fill="#263238"/>
<path d="M112.462 36.0594C112.423 36.0594 112.385 36.0517 112.35 36.0368C112.314 36.0219 112.282 36 112.255 35.9725C112.228 35.945 112.207 35.9124 112.192 35.8766C112.178 35.8407 112.171 35.8024 112.172 35.7639C112.172 35.2922 113.104 34.9854 113.945 34.9854C114.786 34.9854 115.326 35.2922 115.326 35.7639C115.308 35.8256 115.271 35.88 115.22 35.9186C115.168 35.9573 115.106 35.9782 115.042 35.9782C114.978 35.9782 114.915 35.9573 114.864 35.9186C114.813 35.88 114.775 35.8256 114.758 35.7639C114.758 35.7071 114.468 35.565 113.962 35.565C113.555 35.5563 113.15 35.6258 112.769 35.7696C112.769 35.8091 112.761 35.8482 112.745 35.8846C112.729 35.9209 112.707 35.9536 112.678 35.9808C112.649 36.0079 112.615 36.0289 112.578 36.0424C112.541 36.056 112.501 36.0617 112.462 36.0594Z" fill="#455A64"/>
<path d="M105.66 35.8089H105.626L99.1301 35.2407C98.8266 34.9398 98.465 34.7039 98.0674 34.5474L105.694 35.252C105.77 35.262 105.84 35.3014 105.887 35.362C105.935 35.4225 105.957 35.4993 105.949 35.576C105.936 35.6426 105.9 35.7025 105.847 35.7451C105.794 35.7877 105.728 35.8103 105.66 35.8089Z" fill="#455A64"/>
<path d="M78.9902 42.5832C81.1155 39.7418 82.5647 37.5994 84.5025 35.1955C85.605 33.8146 86.3096 32.8258 87.3439 31.4108C88.0713 30.4333 88.4805 29.6093 89.3102 29.3081C90.2065 28.9408 91.0144 28.3868 91.6799 27.6829C92.089 27.2303 92.4686 26.752 92.8165 26.2508C94.0345 24.6113 95.4813 23.155 97.1127 21.9262C98.8175 20.6419 100.721 19.6531 102.477 18.4312C103.523 17.6982 104.642 16.482 103.369 15.3455C102.979 15.0167 102.512 14.7919 102.011 14.692C98.9141 14.0214 96.2205 15.0841 93.1915 15.8569C91.8758 16.1853 90.5891 16.6206 89.3443 17.1583C88.7319 17.4005 88.1577 17.7297 87.6394 18.1357C86.9147 18.8664 86.3208 19.716 85.8834 20.6475C84.5593 23.0116 81.7179 25.1256 79.7289 26.9952C77.4047 29.1831 75.3248 31.1892 72.6709 33.5987C70.2841 35.7752 67.9485 37.7755 65.7606 40.1509C63.9478 42.1115 64.624 43.6459 64.8627 44.1801C66.3402 47.2147 67.9939 48.3058 69.9772 50.1868C73.3869 53.443 85.1788 62.814 89.0828 65.9111C89.9217 66.57 90.5804 67.43 90.998 68.4116L91.7481 70.1448C96.2034 70.9631 99.1755 64.2745 95.4874 56.2219C94.8766 54.9198 93.9436 53.7951 92.7767 52.9543C88.1168 49.5617 78.9902 42.5832 78.9902 42.5832Z" fill="#FFA8A7"/>
<path d="M78.99 42.583C77.5719 44.3275 75.6821 45.6275 73.5459 46.328C73.5459 46.328 76.3873 47.0554 80.28 43.5605L78.99 42.583Z" fill="#F28F8F"/>
<path d="M136.762 83.9826L136.034 83.3575C135.926 83.2859 135.802 83.2409 135.672 83.2261C135.543 83.2113 135.412 83.2271 135.29 83.2723L127.396 85.4204C126.999 85.553 126.634 85.7699 126.328 86.0563C126.022 86.3427 125.782 86.6918 125.623 87.0798L119.941 103.463C119.872 103.597 119.845 103.748 119.863 103.897C119.882 104.046 119.944 104.186 120.043 104.299L120.793 104.947C120.902 105.022 121.028 105.069 121.16 105.085C121.291 105.101 121.425 105.085 121.549 105.037L129.454 102.889C129.851 102.757 130.215 102.54 130.521 102.253C130.827 101.967 131.068 101.618 131.227 101.23C132.363 98.0078 135.773 88.0686 136.909 84.8464C137.046 84.443 136.978 84.1361 136.762 83.9826Z" fill="#455A64"/>
<path d="M120.685 104.094L126.368 87.71C126.526 87.3223 126.766 86.9736 127.072 86.688C127.378 86.4025 127.743 86.1869 128.141 86.0563L136.029 83.9082C136.762 83.7093 137.165 84.1298 136.904 84.8459C135.767 88.068 132.357 98.0073 131.221 101.229C131.062 101.617 130.822 101.967 130.516 102.253C130.21 102.539 129.845 102.756 129.448 102.889L121.56 105.06C120.833 105.23 120.441 104.81 120.685 104.094Z" fill="#0000BD"/>
<path d="M127.283 86.511C126.872 86.8218 126.554 87.2382 126.362 87.7158L120.679 104.094C120.614 104.224 120.587 104.369 120.601 104.514C120.615 104.659 120.67 104.797 120.759 104.912L120.054 104.31C119.953 104.198 119.889 104.058 119.869 103.909C119.85 103.759 119.877 103.608 119.946 103.474L125.629 87.0907C125.809 86.6452 126.1 86.2538 126.476 85.9541L127.283 86.511Z" fill="#37474F"/>
<path d="M134.596 91.4495C134.028 93.1145 132.056 94.2284 128.794 95.0012C125.532 95.7741 123.731 99.2349 124.248 100.286C124.765 101.338 130.039 102.321 132.147 102.019C134.255 101.718 136.369 98.6723 137.011 97.729C137.654 96.7856 138.392 90.2049 137.716 89.3014C137.04 88.3978 135.614 88.5399 135.614 88.5399L134.596 91.4495Z" fill="#F28F8F"/>
</svg>
